<mxfile host="www.draw.io" modified="2019-10-31T08:48:04.391Z" agent="Mozilla/5.0 (Windows NT 10.0; Win64; x64) AppleWebKit/537.36 (KHTML, like Gecko) Chrome/71.0.3578.98 Safari/537.36" etag="dukqwlrDPb6eDP61gm8B" version="12.1.7" type="github" pages="1">
  <diagram id="JxpLpOy4kqPE9Npzk2Ig" name="Page-1">
    <mxGraphModel dx="1422" dy="763" grid="0" gridSize="10" guides="1" tooltips="1" connect="1" arrows="1" fold="1" page="0" pageScale="1" pageWidth="827" pageHeight="1169" math="0" shadow="1">
      <root>
        <mxCell id="0"/>
        <mxCell id="1" parent="0"/>
        <mxCell id="jGdMLaGBsx82mjjz9Sf4-1" value="服务器VM，网段192.168.23.x" style="fillColor=#D4E1F5;strokeColor=none;dashed=0;verticalAlign=top;fontStyle=0;fontColor=#232F3D;" vertex="1" parent="1">
          <mxGeometry x="1090" y="60.5" width="240" height="330" as="geometry"/>
        </mxCell>
        <mxCell id="jGdMLaGBsx82mjjz9Sf4-3" value="终端多用户" style="fillColor=#E6D0DE;strokeColor=none;dashed=0;verticalAlign=top;fontStyle=0;fontColor=#232F3D;" vertex="1" parent="1">
          <mxGeometry x="330" y="70.5" width="130" height="299" as="geometry"/>
        </mxCell>
        <mxCell id="jGdMLaGBsx82mjjz9Sf4-5" value="&lt;span style=&quot;font-size: 14px&quot;&gt;route&lt;/span&gt;" style="outlineConnect=0;dashed=0;verticalLabelPosition=bottom;verticalAlign=top;align=center;html=1;shape=mxgraph.aws3.internet_gateway;fillColor=#F58534;gradientColor=none;" vertex="1" parent="1">
          <mxGeometry x="545" y="187.5" width="69" height="71" as="geometry"/>
        </mxCell>
        <mxCell id="jGdMLaGBsx82mjjz9Sf4-6" value="Client 192.168.23.2" style="outlineConnect=0;fontColor=#232F3E;gradientColor=none;strokeColor=#232F3E;fillColor=#ffffff;dashed=0;verticalLabelPosition=bottom;verticalAlign=top;align=center;html=1;fontSize=12;fontStyle=0;aspect=fixed;shape=mxgraph.aws4.resourceIcon;resIcon=mxgraph.aws4.client;" vertex="1" parent="1">
          <mxGeometry x="365" y="100" width="60" height="60" as="geometry"/>
        </mxCell>
        <mxCell id="jGdMLaGBsx82mjjz9Sf4-9" value="Client 192.168.23.3&amp;nbsp;&lt;br&gt;" style="outlineConnect=0;fontColor=#232F3E;gradientColor=none;strokeColor=#232F3E;fillColor=#ffffff;dashed=0;verticalLabelPosition=bottom;verticalAlign=top;align=center;html=1;fontSize=12;fontStyle=0;aspect=fixed;shape=mxgraph.aws4.resourceIcon;resIcon=mxgraph.aws4.client;" vertex="1" parent="1">
          <mxGeometry x="365" y="190" width="60" height="60" as="geometry"/>
        </mxCell>
        <mxCell id="jGdMLaGBsx82mjjz9Sf4-10" value="Client 192.168.23.4" style="outlineConnect=0;fontColor=#232F3E;gradientColor=none;strokeColor=#232F3E;fillColor=#ffffff;dashed=0;verticalLabelPosition=bottom;verticalAlign=top;align=center;html=1;fontSize=12;fontStyle=0;aspect=fixed;shape=mxgraph.aws4.resourceIcon;resIcon=mxgraph.aws4.client;" vertex="1" parent="1">
          <mxGeometry x="365" y="284.5" width="60" height="60" as="geometry"/>
        </mxCell>
        <mxCell id="jGdMLaGBsx82mjjz9Sf4-12" value="代理服务器区" style="fillColor=#EFF0F3;strokeColor=none;dashed=0;verticalAlign=top;fontStyle=0;fontColor=#232F3D;" vertex="1" parent="1">
          <mxGeometry x="740" y="40" width="130" height="364" as="geometry"/>
        </mxCell>
        <mxCell id="jGdMLaGBsx82mjjz9Sf4-13" value="代理11.11.11.11" style="outlineConnect=0;fontColor=#232F3E;gradientColor=none;strokeColor=#232F3E;fillColor=#ffffff;dashed=0;verticalLabelPosition=bottom;verticalAlign=top;align=center;html=1;fontSize=12;fontStyle=0;aspect=fixed;shape=mxgraph.aws4.resourceIcon;resIcon=mxgraph.aws4.peering;" vertex="1" parent="1">
          <mxGeometry x="775" y="151.5" width="61" height="61" as="geometry"/>
        </mxCell>
        <mxCell id="jGdMLaGBsx82mjjz9Sf4-14" value="代理11.11.11.12" style="outlineConnect=0;fontColor=#232F3E;gradientColor=none;strokeColor=#232F3E;fillColor=#ffffff;dashed=0;verticalLabelPosition=bottom;verticalAlign=top;align=center;html=1;fontSize=12;fontStyle=0;aspect=fixed;shape=mxgraph.aws4.resourceIcon;resIcon=mxgraph.aws4.peering;" vertex="1" parent="1">
          <mxGeometry x="774.5" y="233.5" width="60" height="60" as="geometry"/>
        </mxCell>
        <mxCell id="jGdMLaGBsx82mjjz9Sf4-15" value="VM" style="points=[[0,0],[0.25,0],[0.5,0],[0.75,0],[1,0],[1,0.25],[1,0.5],[1,0.75],[1,1],[0.75,1],[0.5,1],[0.25,1],[0,1],[0,0.75],[0,0.5],[0,0.25]];outlineConnect=0;gradientColor=none;html=1;whiteSpace=wrap;fontSize=12;fontStyle=0;shape=mxgraph.aws4.group;grIcon=mxgraph.aws4.group_vpc;strokeColor=#248814;fillColor=none;verticalAlign=top;align=left;spacingLeft=30;fontColor=#AAB7B8;dashed=0;" vertex="1" parent="1">
          <mxGeometry x="1125" y="92" width="60" height="47" as="geometry"/>
        </mxCell>
        <mxCell id="jGdMLaGBsx82mjjz9Sf4-16" value="VM" style="points=[[0,0],[0.25,0],[0.5,0],[0.75,0],[1,0],[1,0.25],[1,0.5],[1,0.75],[1,1],[0.75,1],[0.5,1],[0.25,1],[0,1],[0,0.75],[0,0.5],[0,0.25]];outlineConnect=0;gradientColor=none;html=1;whiteSpace=wrap;fontSize=12;fontStyle=0;shape=mxgraph.aws4.group;grIcon=mxgraph.aws4.group_vpc;strokeColor=#248814;fillColor=none;verticalAlign=top;align=left;spacingLeft=30;fontColor=#AAB7B8;dashed=0;" vertex="1" parent="1">
          <mxGeometry x="1125" y="152" width="60" height="47" as="geometry"/>
        </mxCell>
        <mxCell id="jGdMLaGBsx82mjjz9Sf4-17" value="VM" style="points=[[0,0],[0.25,0],[0.5,0],[0.75,0],[1,0],[1,0.25],[1,0.5],[1,0.75],[1,1],[0.75,1],[0.5,1],[0.25,1],[0,1],[0,0.75],[0,0.5],[0,0.25]];outlineConnect=0;gradientColor=none;html=1;whiteSpace=wrap;fontSize=12;fontStyle=0;shape=mxgraph.aws4.group;grIcon=mxgraph.aws4.group_vpc;strokeColor=#248814;fillColor=none;verticalAlign=top;align=left;spacingLeft=30;fontColor=#AAB7B8;dashed=0;" vertex="1" parent="1">
          <mxGeometry x="1125" y="215" width="60" height="47" as="geometry"/>
        </mxCell>
        <mxCell id="jGdMLaGBsx82mjjz9Sf4-18" value="VM" style="points=[[0,0],[0.25,0],[0.5,0],[0.75,0],[1,0],[1,0.25],[1,0.5],[1,0.75],[1,1],[0.75,1],[0.5,1],[0.25,1],[0,1],[0,0.75],[0,0.5],[0,0.25]];outlineConnect=0;gradientColor=none;html=1;whiteSpace=wrap;fontSize=12;fontStyle=0;shape=mxgraph.aws4.group;grIcon=mxgraph.aws4.group_vpc;strokeColor=#248814;fillColor=none;verticalAlign=top;align=left;spacingLeft=30;fontColor=#AAB7B8;dashed=0;" vertex="1" parent="1">
          <mxGeometry x="1125" y="272.5" width="60" height="47" as="geometry"/>
        </mxCell>
        <mxCell id="jGdMLaGBsx82mjjz9Sf4-19" value="VM" style="points=[[0,0],[0.25,0],[0.5,0],[0.75,0],[1,0],[1,0.25],[1,0.5],[1,0.75],[1,1],[0.75,1],[0.5,1],[0.25,1],[0,1],[0,0.75],[0,0.5],[0,0.25]];outlineConnect=0;gradientColor=none;html=1;whiteSpace=wrap;fontSize=12;fontStyle=0;shape=mxgraph.aws4.group;grIcon=mxgraph.aws4.group_vpc;strokeColor=#248814;fillColor=none;verticalAlign=top;align=left;spacingLeft=30;fontColor=#AAB7B8;dashed=0;" vertex="1" parent="1">
          <mxGeometry x="1125" y="330" width="60" height="47" as="geometry"/>
        </mxCell>
        <mxCell id="jGdMLaGBsx82mjjz9Sf4-20" value="交换机" style="outlineConnect=0;dashed=0;verticalLabelPosition=bottom;verticalAlign=top;align=center;html=1;shape=mxgraph.aws3.application_load_balancer;fillColor=#F58536;gradientColor=none;" vertex="1" parent="1">
          <mxGeometry x="945" y="184" width="69" height="72" as="geometry"/>
        </mxCell>
        <mxCell id="jGdMLaGBsx82mjjz9Sf4-21" value="VM" style="points=[[0,0],[0.25,0],[0.5,0],[0.75,0],[1,0],[1,0.25],[1,0.5],[1,0.75],[1,1],[0.75,1],[0.5,1],[0.25,1],[0,1],[0,0.75],[0,0.5],[0,0.25]];outlineConnect=0;gradientColor=none;html=1;whiteSpace=wrap;fontSize=12;fontStyle=0;shape=mxgraph.aws4.group;grIcon=mxgraph.aws4.group_vpc;strokeColor=#248814;fillColor=none;verticalAlign=top;align=left;spacingLeft=30;fontColor=#AAB7B8;dashed=0;" vertex="1" parent="1">
          <mxGeometry x="1240" y="89" width="60" height="47" as="geometry"/>
        </mxCell>
        <mxCell id="jGdMLaGBsx82mjjz9Sf4-22" value="VM" style="points=[[0,0],[0.25,0],[0.5,0],[0.75,0],[1,0],[1,0.25],[1,0.5],[1,0.75],[1,1],[0.75,1],[0.5,1],[0.25,1],[0,1],[0,0.75],[0,0.5],[0,0.25]];outlineConnect=0;gradientColor=none;html=1;whiteSpace=wrap;fontSize=12;fontStyle=0;shape=mxgraph.aws4.group;grIcon=mxgraph.aws4.group_vpc;strokeColor=#248814;fillColor=none;verticalAlign=top;align=left;spacingLeft=30;fontColor=#AAB7B8;dashed=0;" vertex="1" parent="1">
          <mxGeometry x="1240" y="149" width="60" height="47" as="geometry"/>
        </mxCell>
        <mxCell id="jGdMLaGBsx82mjjz9Sf4-23" value="VM" style="points=[[0,0],[0.25,0],[0.5,0],[0.75,0],[1,0],[1,0.25],[1,0.5],[1,0.75],[1,1],[0.75,1],[0.5,1],[0.25,1],[0,1],[0,0.75],[0,0.5],[0,0.25]];outlineConnect=0;gradientColor=none;html=1;whiteSpace=wrap;fontSize=12;fontStyle=0;shape=mxgraph.aws4.group;grIcon=mxgraph.aws4.group_vpc;strokeColor=#248814;fillColor=none;verticalAlign=top;align=left;spacingLeft=30;fontColor=#AAB7B8;dashed=0;" vertex="1" parent="1">
          <mxGeometry x="1240" y="209" width="60" height="47" as="geometry"/>
        </mxCell>
        <mxCell id="jGdMLaGBsx82mjjz9Sf4-24" value="VM" style="points=[[0,0],[0.25,0],[0.5,0],[0.75,0],[1,0],[1,0.25],[1,0.5],[1,0.75],[1,1],[0.75,1],[0.5,1],[0.25,1],[0,1],[0,0.75],[0,0.5],[0,0.25]];outlineConnect=0;gradientColor=none;html=1;whiteSpace=wrap;fontSize=12;fontStyle=0;shape=mxgraph.aws4.group;grIcon=mxgraph.aws4.group_vpc;strokeColor=#248814;fillColor=none;verticalAlign=top;align=left;spacingLeft=30;fontColor=#AAB7B8;dashed=0;" vertex="1" parent="1">
          <mxGeometry x="1240" y="269" width="60" height="47" as="geometry"/>
        </mxCell>
        <mxCell id="jGdMLaGBsx82mjjz9Sf4-25" value="VM" style="points=[[0,0],[0.25,0],[0.5,0],[0.75,0],[1,0],[1,0.25],[1,0.5],[1,0.75],[1,1],[0.75,1],[0.5,1],[0.25,1],[0,1],[0,0.75],[0,0.5],[0,0.25]];outlineConnect=0;gradientColor=none;html=1;whiteSpace=wrap;fontSize=12;fontStyle=0;shape=mxgraph.aws4.group;grIcon=mxgraph.aws4.group_vpc;strokeColor=#248814;fillColor=none;verticalAlign=top;align=left;spacingLeft=30;fontColor=#AAB7B8;dashed=0;" vertex="1" parent="1">
          <mxGeometry x="1240" y="329" width="60" height="47" as="geometry"/>
        </mxCell>
        <mxCell id="jGdMLaGBsx82mjjz9Sf4-26" value="" style="endArrow=classic;startArrow=classic;html=1;" edge="1" parent="1" target="jGdMLaGBsx82mjjz9Sf4-20">
          <mxGeometry width="50" height="50" relative="1" as="geometry">
            <mxPoint x="870" y="220.5" as="sourcePoint"/>
            <mxPoint x="90" y="411.5" as="targetPoint"/>
          </mxGeometry>
        </mxCell>
        <mxCell id="jGdMLaGBsx82mjjz9Sf4-27" value="" style="endArrow=classic;startArrow=classic;html=1;exitX=1;exitY=0.5;exitDx=0;exitDy=0;exitPerimeter=0;" edge="1" parent="1" source="jGdMLaGBsx82mjjz9Sf4-20" target="jGdMLaGBsx82mjjz9Sf4-1">
          <mxGeometry width="50" height="50" relative="1" as="geometry">
            <mxPoint x="40" y="461.5" as="sourcePoint"/>
            <mxPoint x="90" y="411.5" as="targetPoint"/>
          </mxGeometry>
        </mxCell>
        <mxCell id="jGdMLaGBsx82mjjz9Sf4-28" value="代理11.11.11.13" style="outlineConnect=0;fontColor=#232F3E;gradientColor=none;strokeColor=#232F3E;fillColor=#ffffff;dashed=0;verticalLabelPosition=bottom;verticalAlign=top;align=center;html=1;fontSize=12;fontStyle=0;aspect=fixed;shape=mxgraph.aws4.resourceIcon;resIcon=mxgraph.aws4.peering;" vertex="1" parent="1">
          <mxGeometry x="775" y="315.5" width="60" height="60" as="geometry"/>
        </mxCell>
        <mxCell id="jGdMLaGBsx82mjjz9Sf4-29" value="代理Master" style="outlineConnect=0;fontColor=#232F3E;gradientColor=none;strokeColor=#232F3E;fillColor=#ffffff;dashed=0;verticalLabelPosition=bottom;verticalAlign=top;align=center;html=1;fontSize=12;fontStyle=0;aspect=fixed;shape=mxgraph.aws4.resourceIcon;resIcon=mxgraph.aws4.peering;" vertex="1" parent="1">
          <mxGeometry x="774.5" y="61" width="60" height="60" as="geometry"/>
        </mxCell>
        <mxCell id="jGdMLaGBsx82mjjz9Sf4-33" value="" style="endArrow=classic;startArrow=classic;html=1;" edge="1" parent="1">
          <mxGeometry width="50" height="50" relative="1" as="geometry">
            <mxPoint x="463" y="219.68674698795178" as="sourcePoint"/>
            <mxPoint x="541" y="220" as="targetPoint"/>
          </mxGeometry>
        </mxCell>
        <mxCell id="jGdMLaGBsx82mjjz9Sf4-40" value="" style="endArrow=classic;startArrow=classic;html=1;exitX=1;exitY=0.5;exitDx=0;exitDy=0;exitPerimeter=0;entryX=0;entryY=0.5;entryDx=0;entryDy=0;" edge="1" parent="1" source="jGdMLaGBsx82mjjz9Sf4-5" target="jGdMLaGBsx82mjjz9Sf4-12">
          <mxGeometry width="50" height="50" relative="1" as="geometry">
            <mxPoint x="630" y="360" as="sourcePoint"/>
            <mxPoint x="680" y="310" as="targetPoint"/>
          </mxGeometry>
        </mxCell>
      </root>
    </mxGraphModel>
  </diagram>
</mxfile>
